<!--?xml version="1.0" standalone="no"?-->

<svg version="1.0" xmlns="http://www.w3.org/2000/svg" width="281.000000pt" height="300.000000pt" viewBox="0 0 281.000000 300.000000" preserveAspectRatio="xMidYMid meet">
<g transform="translate(0.000000,300.000000) scale(0.100000,-0.100000)" fill="#2F2E35" stroke="none">
<path class="node" id="node1" d="M1511 2331 c-5 -9 -12 -71 -16 -138 -6 -118 -6 -123 13 -123 11 0 33
-3 49 -6 l29 -6 17 94 c33 178 32 176 6 182 -64 13 -90 12 -98 -3z"></path>
<path class="node" id="node2" d="M1198 2333 c-10 -2 -18 -12 -18 -22 0 -20 40 -244 44 -248 1 -2 24 0
51 3 l47 7 -6 81 c-4 45 -9 105 -12 134 l-6 52 -42 -1 c-22 -1 -49 -3 -58 -6z"></path>
<path class="node" id="node3" d="M910 2251 c-24 -10 -46 -23 -47 -28 -5 -14 104 -243 115 -243 19 0
82 31 82 40 0 12 -67 199 -82 228 -13 26 -11 26 -68 3z"></path>
<path class="node" id="node4" d="M1820 2228 c-11 -23 -20 -47 -20 -53 0 -5 -11 -37 -25 -70 -33 -81
-32 -92 11 -110 20 -8 40 -15 43 -15 12 0 123 232 118 245 -3 6 -22 17 -43 24
-22 7 -45 15 -52 18 -7 3 -20 -12 -32 -39z"></path>
<path class="node" id="node5" d="M622 2078 c-23 -18 -41 -37 -41 -42 -1 -4 32 -45 72 -90 39 -44 79
-89 87 -98 15 -16 18 -16 53 9 43 30 44 36 16 71 -11 15 -45 62 -75 105 -31
42 -59 77 -64 77 -4 0 -26 -15 -48 -32z"></path>
<path class="node" id="node6" d="M2078 2038 c-77 -103 -98 -135 -98 -145 0 -6 16 -21 36 -35 l36 -26
91 100 91 101 -42 38 c-23 22 -46 39 -51 39 -5 0 -34 -33 -63 -72z"></path>
<path class="node" id="node7" d="M391 1838 c-38 -51 -38 -58 -3 -80 15 -9 59 -37 97 -62 39 -25 77
-50 86 -56 13 -8 22 -2 43 31 l27 40 -32 27 c-90 75 -174 142 -180 142 -4 0
-21 -19 -38 -42z"></path>
<path class="node" id="node8" d="M2271 1799 c-55 -44 -101 -83 -101 -85 0 -12 47 -74 56 -74 13 0 224
137 224 146 0 10 -63 94 -70 94 -4 0 -53 -36 -109 -81z"></path>
<path class="node" id="node9" d="M1905 1697 c-11 -7 -54 -28 -95 -47 -41 -18 -108 -49 -149 -68 -63
-30 -77 -33 -94 -23 -103 65 -174 76 -252 41 -69 -30 -111 -74 -135 -137 -29
-77 -26 -120 13 -194 44 -86 100 -122 198 -127 123 -7 207 53 244 173 8 28 15
59 15 71 0 17 30 35 168 99 92 43 177 87 190 98 67 61 -26 165 -103 114z"></path>
<path class="node" id="node10" d="M245 1578 c-31 -86 -34 -99 -22 -103 66 -24 232 -75 241 -75 7 0 18
17 26 38 8 20 16 39 17 42 4 8 -225 110 -246 110 -7 0 -14 -6 -16 -12z"></path>
<path class="node" id="node11" d="M2520 1583 c-8 -3 -33 -14 -55 -23 -22 -10 -65 -28 -95 -41 -30 -12
-58 -25 -62 -29 -11 -8 22 -90 36 -90 6 0 64 17 129 37 l119 38 -5 30 c-12 74
-28 92 -67 78z"></path>
<path class="node" id="node12" d="M157 1214 c-4 -40 -2 -61 6 -66 7 -4 69 -8 138 -8 l126 0 7 41 c8 50
3 59 -37 59 -18 0 -46 4 -63 9 -17 5 -62 12 -101 16 l-70 7 -6 -58z"></path>
<path class="node" id="node13" d="M2472 1252 l-104 -16 6 -29 c3 -16 6 -39 6 -50 0 -19 5 -19 135 -15
74 2 137 7 140 10 3 3 3 31 -1 62 l-7 56 -36 -1 c-20 -1 -83 -9 -139 -17z"></path>
<path class="node" id="node14" d="M195 978 c-49 -28 -58 -72 -22 -106 l23 -22 1211 0 1212 0 20 26 c32
41 24 76 -26 102 -31 17 -2389 17 -2418 0z"></path>












</g>
<g transform="translate(0.000000,300.000000) scale(0.100000,-0.100000)" fill="#FFFFFF" stroke="none">


</g>
</svg>